<?xml version="1.0" encoding="UTF-8"?>
<!DOCTYPE svg PUBLIC "-//W3C//DTD SVG 1.1//EN" "http://www.w3.org/Graphics/SVG/1.1/DTD/svg11.dtd">
<!-- Creator: CorelDRAW -->
<svg xmlns="http://www.w3.org/2000/svg" xml:space="preserve" width="3508px" height="4961px" version="1.1" style="shape-rendering:geometricPrecision; text-rendering:geometricPrecision; image-rendering:optimizeQuality; fill-rule:evenodd; clip-rule:evenodd"
viewBox="0 0 3508 4960.81"
 xmlns:xlink="http://www.w3.org/1999/xlink"
 xmlns:xodm="http://www.corel.com/coreldraw/odm/2003">
 <defs>
  <style type="text/css">
   <![CDATA[
    .fil0 {fill:#373435;fill-rule:nonzero}
   ]]>
  </style>
 </defs>
 <g id="Layer_x0020_1">
  <metadata id="CorelCorpID_0Corel-Layer"/>
  <g id="_2552216392768">
   <path class="fil0" d="M2001.48 2045.92c68.64,-109.18 103.23,-229.17 103.23,-360.51 0,-119.98 -39.99,-239.97 -118.9,-361.04 181.6,77.83 272.4,199.44 272.4,365.91 0,168.09 -85.4,286.99 -256.73,355.64zm-962.6 -775.6l0 1666.85 -68.1 0c-26.49,0 -68.1,3.25 -124.85,9.73 -48.65,6.49 -105.94,9.73 -171.34,9.73l0 -29.19c67.56,-7.56 123.77,-40.53 168.09,-99.98 44.32,-58.92 66.48,-172.96 66.48,-342.13l0 -813.97c0,-230.24 -78.37,-361.58 -234.57,-394.55l0 -29.19c67.56,8.65 189.17,16.22 364.29,22.7zm246.46 432.39l0 344.83c62.15,15.67 129.72,23.78 202.14,23.78 237.27,0 355.64,-123.77 355.64,-371.85 0,-231.87 -117.29,-348.08 -352.4,-348.08 -75.66,0 -134.58,15.14 -176.74,45.95 -18.91,42.69 -28.64,144.31 -28.64,305.37zm-85.4 1234.46l-45.94 0 0 -1666.85c63.24,0 130.8,-3.24 202.68,-9.73 82.16,-8.64 148.64,-12.97 200.52,-12.97 144.31,0 251.87,44.32 322.13,132.42 70.8,88.1 106.48,196.74 106.48,325.91 0,218.9 -92.43,359.42 -277.27,421.04 91.88,12.43 169.17,39.99 231.32,82.15 66.48,45.4 167.55,136.2 302.67,272.41 205.93,208.62 373.48,312.94 503.19,312.94 26.49,0 53.51,-9.19 81.08,-27.03l6.48 28.65c-42.7,54.59 -101.07,82.15 -176.19,82.15 -80,0 -163.77,-29.73 -251.87,-90.26 -82.15,-56.75 -204.84,-168.63 -368.61,-335.1 -196.2,-202.68 -386.99,-303.75 -572.37,-303.75 114.58,35.67 270.24,156.74 465.9,362.12 138.36,143.77 249.16,248.08 332.93,313.48 84.32,65.4 164.85,97.83 242.14,97.83l0 14.59c-35.67,12.97 -71.34,19.46 -105.94,19.46 -102.69,0 -191.33,-25.94 -266.45,-78.37 -40,-28.1 -90.8,-71.88 -152.42,-130.26 -62.15,-58.37 -136.2,-134.04 -222.68,-227 -126.47,-135.12 -219.98,-227 -281.05,-275.65 -65.4,-49.18 -129.18,-84.31 -191.33,-104.31l0 375.1c0,251.86 76.21,389.14 228.08,411.3l0 29.19c-126.47,-12.97 -231.32,-19.46 -313.48,-19.46z"/>
   <path class="fil0" d="M423.3 3209c12.42,-19.77 18.69,-41.5 18.69,-65.28 0,-21.73 -7.24,-43.46 -21.53,-65.38 32.88,14.09 49.32,36.11 49.32,66.26 0,30.44 -15.46,51.97 -46.48,64.4zm-174.31 -140.45l0 301.83 -12.33 0c-4.8,0 -12.33,0.59 -22.61,1.77 -8.81,1.17 -19.18,1.76 -31.03,1.76l0 -5.29c12.24,-1.37 22.42,-7.34 30.44,-18.1 8.03,-10.67 12.04,-31.32 12.04,-61.95l0 -147.4c0,-41.69 -14.19,-65.47 -42.48,-71.44l0 -5.29c12.24,1.57 34.26,2.94 65.97,4.11zm44.63 78.3l0 62.44c11.25,2.84 23.49,4.31 36.6,4.31 42.97,0 64.4,-22.41 64.4,-67.34 0,-41.98 -21.24,-63.03 -63.81,-63.03 -13.7,0 -24.37,2.74 -32.01,8.32 -3.42,7.73 -5.18,26.13 -5.18,55.3zm-15.47 223.53l-8.32 0 0 -301.83c11.46,0 23.69,-0.58 36.71,-1.76 14.87,-1.56 26.91,-2.35 36.31,-2.35 26.13,0 45.6,8.03 58.33,23.98 12.82,15.95 19.28,35.63 19.28,59.02 0,39.63 -16.74,65.08 -50.21,76.24 16.64,2.25 30.63,7.24 41.89,14.87 12.04,8.22 30.34,24.67 54.81,49.33 37.28,37.78 67.62,56.67 91.11,56.67 4.8,0 9.69,-1.67 14.68,-4.9l1.18 5.19c-7.73,9.89 -18.3,14.88 -31.91,14.88 -14.48,0 -29.65,-5.39 -45.61,-16.35 -14.87,-10.27 -37.09,-30.53 -66.74,-60.68 -35.53,-36.7 -70.08,-55 -103.65,-55 20.75,6.46 48.94,28.38 84.37,65.57 25.05,26.04 45.11,44.93 60.28,56.77 15.27,11.84 29.85,17.71 43.85,17.71l0 2.64c-6.46,2.35 -12.92,3.53 -19.18,3.53 -18.6,0 -34.65,-4.7 -48.25,-14.19 -7.25,-5.09 -16.44,-13.02 -27.6,-23.59 -11.26,-10.57 -24.66,-24.27 -40.32,-41.1 -22.91,-24.47 -39.84,-41.11 -50.9,-49.92 -11.84,-8.91 -23.39,-15.27 -34.64,-18.89l0 67.92c0,45.61 13.8,70.47 41.3,74.48l0 5.29c-22.9,-2.35 -41.89,-3.53 -56.77,-3.53zm559.63 -29.65c20.84,-28.28 31.22,-70.86 31.22,-127.72 0,-50.31 -10.28,-89.45 -30.93,-117.54 39.25,23.49 58.92,63.71 58.92,120.67 0,56.18 -19.77,97.68 -59.21,124.59zm-230.78 -245.56c-21.04,32.5 -31.61,74.09 -31.61,124.69 0,45.8 10.08,85.54 30.14,119.21 -38.66,-25.45 -57.94,-66.16 -57.94,-122.05 0,-57.55 19.77,-98.16 59.41,-121.85zm214.24 122.93c0,-91.51 -33.18,-137.21 -99.64,-137.21 -65.08,0 -97.67,46.87 -97.67,140.63 0,88.28 32.98,132.42 98.85,132.42 65.67,0 98.46,-45.31 98.46,-135.84zm26.91 -0.29c0,35.23 -5.38,64.88 -16.05,89.16 -10.47,24.07 -25.25,41.88 -44.34,53.33 -18.79,11.85 -40.61,17.72 -65.67,17.72 -39.63,0 -70.46,-14.29 -92.19,-42.77 -21.73,-28.48 -32.69,-67.63 -32.69,-117.54 0,-51.87 11.16,-91.61 33.28,-119.31 22.21,-27.3 52.55,-41 91.11,-41 39.05,0 69.98,13.7 92.69,41 22.6,27.11 33.86,66.95 33.86,119.41zm74.58 -149.26l148.76 157.18 0 144.65 -6.95 0c-16.54,0 -35.82,1.18 -57.55,3.53l0 -5.29c12.63,-2.83 22.51,-9.2 29.85,-18.89 7.05,-9.39 10.57,-27.59 10.57,-54.51l0 -62.83 -91.21 -96.4c-34.75,-36.51 -66.16,-58.63 -94.35,-66.26l0 -5.29c15.96,2.74 33.08,4.11 51.68,4.11l9.2 0zm170.78 301.83l0 -152.97 -143.28 -148.86 8.02 0c22.71,0 46.3,-1.37 70.57,-4.11l0 5.29c-11.35,3.23 -16.93,8.61 -16.93,16.05 0,9.98 11.45,26.91 34.35,50.79l60.48 63.42 56.67 -66.25c12.63,-14.78 18.99,-28 18.99,-39.64 0,-13.21 -6.66,-21.34 -19.87,-24.37l0 -5.29c4.6,0 16.25,0.79 35.04,2.35 7.83,1.18 14.77,1.76 20.65,1.76 3.32,0 20.16,-1.37 50.6,-4.11l0 5.29c-14.39,4.21 -26.04,10.08 -35.04,17.52 -8.61,7.43 -18.5,17.81 -29.56,31.22 -0.59,1.17 -1.96,2.93 -4.11,5.18l-83.38 97.58 0 72.82c0,44.14 13.7,68.99 41.2,74.57l0 5.29c-34.94,-2.35 -52.95,-3.53 -54.12,-3.53l-10.28 0zm444.43 0l-144.85 -301.83 28.09 0c3.82,9.79 9.2,22.12 16.05,37 7.73,16.25 12.04,25.93 12.92,28.97 0.98,1.66 1.86,3.72 2.64,5.97l67.34 139.76c23.58,48.54 48.54,78 75.16,88.37l0 5.29c-26.03,-2.35 -45.12,-3.53 -57.35,-3.53zm-204.75 -144.45l86.62 0 -41.59 -87.11 -45.03 87.11zm122.44 75.06l-25.54 -53.33 -108.15 0 -27.21 53.33c0,0 -0.49,1.18 -1.37,3.72 -0.19,0.2 -1.66,2.94 -4.3,8.32 -4.12,8.03 -6.07,16.25 -6.07,24.67 0,14.48 8.02,24.76 24.07,30.92l0 5.29c-3.23,0 -8.9,-0.49 -16.93,-1.47 -11.25,-1.37 -21.43,-2.06 -30.34,-2.06 -8.22,0 -18.4,0.59 -30.44,1.77 -8.22,1.17 -13.7,1.76 -16.34,1.76l0 -5.29c21.04,-10.66 40.13,-32.78 57.35,-66.25l95.23 -185.37c-7.24,-14.68 -17.23,-26.03 -29.95,-34.06 -12.72,-8.02 -27.6,-12.43 -44.63,-13.21l0 -5.29 10.08 0c8.91,0 21.24,0.59 37,1.76 16.44,1.57 27.11,2.35 32.1,2.35l144.85 301.83c-18.6,0.4 -40.91,1.57 -66.85,3.53l0 -5.29c14.49,-2.44 21.73,-10.27 21.73,-23.49 0,-9.78 -4.7,-24.46 -14.29,-44.14zm380.81 69.39l-132.71 0 0 -301.83c13.02,-0.49 27.5,-1.46 43.55,-2.93 14.98,-0.79 21.83,-1.18 20.65,-1.18l0 5.29c-14.68,3.82 -25.15,11.35 -31.22,22.61 -6.16,11.64 -9.2,28.97 -9.2,51.97l0 124.68c0,18.69 0.98,35.43 2.84,50.11 1.76,15.56 3.72,24.37 6.07,26.72 2.06,2.25 7.63,3.42 16.64,3.42l60.19 0c21.24,0 38.75,-3.32 52.75,-10.08 14,-6.65 26.23,-19.86 36.7,-39.54l5.77 0c-1.37,9.2 -5.67,23.69 -12.91,43.56 -4.8,12.72 -7.83,23 -9.2,30.63 -15.47,-2.25 -32.1,-3.43 -49.92,-3.43zm-213.75 -305.94l60.49 4.11 0 301.83 -17.81 0c-10.87,0 -25.06,1.18 -42.68,3.43l0 -5.19c14.2,-5.48 23.79,-14.38 28.97,-26.62 5.19,-12.43 7.74,-32.39 7.74,-59.7l0 -137.11c0,-29.27 -3.82,-48.55 -11.45,-57.94 -7.83,-9.59 -16.25,-15.47 -25.26,-17.52l0 -5.29zm682.16 297.92c17.62,-18.6 26.42,-42.18 26.42,-71.05 0,-30.83 -9.2,-55.89 -27.5,-74.97 36.31,13.21 54.42,37.38 54.42,72.71 0,17.33 -5.09,32.79 -15.17,46.4 -10.18,13.5 -22.9,22.51 -38.17,26.91zm-14.29 -162.17c11.65,-15.37 17.42,-33.57 17.42,-54.71 0,-16.64 -3.23,-31.61 -9.69,-44.82 -6.75,-13.61 -14.48,-22.71 -23.19,-27.31 18.89,4.01 33.37,12.14 43.55,24.37 10.08,12.43 15.17,26.23 15.17,41.4 0,13.5 -4.21,26.13 -12.63,38.07 -8.41,11.45 -18.59,19.18 -30.63,23zm-153.17 -131.64l0 301.83c-16.63,0.59 -36.7,1.77 -60.19,3.53l0 -5.19c24.47,-6.75 36.71,-32.69 36.71,-77.81l0 -149.54c0,-39.83 -12.24,-63.71 -36.71,-71.74l0 -5.19c19.87,2.25 39.93,3.62 60.19,4.11zm73.31 156.2l-28.68 0 0 51.39c0,36.01 3.92,58.82 11.75,68.31 6.65,5.19 16.73,7.73 30.04,7.73 22.32,0 38.27,-6.46 47.86,-19.38 9.1,-13.01 13.7,-28.18 13.7,-45.51 0,-13.89 -2.93,-25.74 -8.9,-35.72 -6.07,-10.08 -13.7,-17.13 -22.9,-21.14 -9.69,-3.82 -23.98,-5.68 -42.87,-5.68zm-28.68 -78.39l0 57.84 22.02 0c18.31,0 32.4,-4.99 42.38,-14.97 9.89,-9.99 14.88,-24.37 14.88,-43.16 0,-19.38 -5.39,-34.16 -15.96,-44.34 -10.76,-9.98 -23.48,-14.97 -38.36,-14.97 -8.22,0 -14.88,2.05 -19.77,6.07 -3.43,10.37 -5.19,28.18 -5.19,53.53zm-23.49 224.02l0 -301.83 48.94 -4.11c24.27,0 43.55,7.54 57.84,22.61 14.19,15.37 21.24,34.84 21.24,58.43 0,29.56 -12.82,50.89 -38.47,63.91 41.31,9.39 61.96,36.21 61.96,80.45 0,22.31 -6.76,41.89 -20.36,58.62 -13.7,16.93 -35.92,25.45 -66.45,25.45 -11.26,0 -23.49,-0.78 -36.61,-2.35 -11.84,-0.78 -21.24,-1.18 -28.09,-1.18zm528.31 0l-144.85 -301.83 28.09 0c3.81,9.79 9.2,22.12 16.05,37 7.73,16.25 12.04,25.93 12.92,28.97 0.98,1.66 1.86,3.72 2.64,5.97l67.33 139.76c23.59,48.54 48.55,78 75.17,88.37l0 5.29c-26.04,-2.35 -45.12,-3.53 -57.35,-3.53zm-204.75 -144.45l86.62 0 -41.6 -87.11 -45.02 87.11zm122.44 75.06l-25.55 -53.33 -108.14 0 -27.21 53.33c0,0 -0.49,1.18 -1.37,3.72 -0.2,0.2 -1.67,2.94 -4.31,8.32 -4.11,8.03 -6.07,16.25 -6.07,24.67 0,14.48 8.03,24.76 24.08,30.92l0 5.29c-3.23,0 -8.91,-0.49 -16.93,-1.47 -11.26,-1.37 -21.43,-2.06 -30.34,-2.06 -8.22,0 -18.4,0.59 -30.44,1.77 -8.22,1.17 -13.7,1.76 -16.34,1.76l0 -5.29c21.04,-10.66 40.12,-32.78 57.35,-66.25l95.23 -185.37c-7.25,-14.68 -17.23,-26.03 -29.95,-34.06 -12.72,-8.02 -27.6,-12.43 -44.63,-13.21l0 -5.29 10.08 0c8.91,0 21.24,0.59 37,1.76 16.44,1.57 27.11,2.35 32.1,2.35l144.84 301.83c-18.59,0.4 -40.91,1.57 -66.84,3.53l0 -5.29c14.48,-2.44 21.73,-10.27 21.73,-23.49 0,-9.78 -4.7,-24.46 -14.29,-44.14zm412.13 49.82l0 -138.09c9.2,-0.39 17.61,-0.98 25.25,-1.67 12.43,-1.17 20.55,-1.76 24.37,-1.76l0 5.19c-17.42,7.04 -26.13,25.74 -26.13,56.08l0 72.81c-1.37,0.2 -5.09,1.28 -11.16,3.43 -3.03,0.78 -5.58,1.47 -7.44,2.25 -1.96,0.78 -3.52,1.37 -4.89,1.76zm-209.15 -256.13c-23.39,33.08 -35.14,74.88 -35.14,125.47 0,11.85 1.37,28.78 4.12,50.7 2.64,21.63 10.86,44.04 24.66,67.34 -37.19,-29.07 -55.79,-68.61 -55.79,-118.62 0,-30.73 6.27,-56.57 18.7,-77.61 12.33,-20.56 26.81,-36.31 43.45,-47.28zm188.01 118.04l0 144.94c-30.44,12.43 -56.67,18.6 -78.59,18.6 -37.19,0 -67.04,-12.24 -89.85,-36.61 -11.35,-12.43 -19.77,-28.09 -25.44,-47.07 -5.68,-18.89 -8.52,-40.91 -8.52,-65.97 0,-109.32 45.81,-163.93 137.41,-163.93 33.67,0 66.36,5.68 97.87,17.13 0,17.71 0.3,31.42 0.88,41.01 0.59,8.12 0.88,18.2 0.88,30.04l-5.77 0c-4.6,-20.65 -15.37,-36.89 -32.3,-48.74 -17.42,-11.84 -38.17,-17.71 -62.24,-17.71 -74.48,0 -111.67,44.63 -111.67,133.79 0,90.53 31.71,135.74 95.03,135.74 25.25,0 43.16,-5.97 53.63,-18.01 3.43,-6.36 5.19,-18 5.19,-34.94l0 -38.75c0,-27.6 -10.08,-43.55 -30.34,-47.76l0 -5.19c7.05,0.39 16.83,0.98 29.46,1.76 9.79,0.69 17.91,1.28 24.37,1.67zm110 58.43l6.56 0c1.27,24.46 11.16,44.62 29.46,60.48 17.91,15.66 38.66,23.49 61.95,23.49 18.01,0 32.69,-5.09 43.95,-15.17 11.25,-10.18 16.93,-22.32 16.93,-36.41 0,-14.97 -5.48,-26.52 -16.35,-34.74 -10.57,-8.03 -31.32,-17.13 -62.34,-27.21 -24.86,-8.22 -42.57,-15.07 -53.05,-20.36 -12.23,-6.36 -21.72,-14.88 -28.57,-25.54 -7.44,-10.96 -11.16,-23.2 -11.16,-36.8 0,-15.07 5.09,-29.95 15.17,-44.53 -2.35,7.44 -3.43,13.99 -3.43,19.57 0,14.88 3.53,27.99 10.57,39.34 7.25,11.65 16.15,20.46 26.82,26.43 10.77,6.17 28.68,13.11 53.73,20.94 32.69,9.99 56.37,20.95 70.96,32.99 13.99,11.64 20.94,27.3 20.94,46.97 0,19.28 -7.24,36.8 -21.73,52.46 -14.77,15.86 -36.8,23.78 -66.06,23.78 -11.84,0 -28.28,-2.15 -49.33,-6.55 -18.4,-3.82 -32.19,-5.87 -41.3,-6.07l-2.05 -2.25c0.19,-3.23 0.29,-7.44 0.29,-12.63 0,-6.06 -0.59,-15.56 -1.76,-28.38 -0.88,-12.82 -1.37,-22.31 -1.37,-28.68 0,-8.22 0.39,-15.26 1.17,-21.13zm202.59 -119.9l-5.96 0c-0.2,-22.21 -9.01,-38.56 -26.53,-49.32 -17.03,-10.47 -37.68,-15.76 -62.05,-15.76 -19.38,0 -35.23,4.11 -47.66,12.33 -12.63,8.22 -18.99,18.11 -18.99,29.56 0,12.23 4.99,21.82 14.98,28.97 10.27,7.63 30.63,16.73 61.07,27.21 28.38,9.78 48.25,17.71 59.5,23.78 12.14,6.65 22.22,16.25 30.25,28.67 8.12,12.82 12.13,27.02 12.13,42.77 0,23.88 -8.81,42.58 -26.52,56.18 6.56,-9 9.78,-21.63 9.78,-37.87 0,-15.27 -3.52,-28.88 -10.66,-40.72 -7.44,-12.04 -16.64,-21.63 -27.6,-28.67 -11.16,-7.25 -29.17,-14.98 -54.32,-23.2 -37.68,-12.43 -62.25,-23.1 -73.79,-31.81 -11.36,-9 -17.13,-23 -17.13,-41.89 0,-21.82 8.81,-38.95 26.33,-51.38 17.61,-12.04 42.67,-18.01 74.96,-18.01 22.12,0 49.04,3.82 80.84,11.46l0 2.05 0.49 10.86c0,5.68 0.2,12.63 0.59,20.65 0.59,9.69 0.88,18.31 0.88,25.84 0,4.9 -0.19,11.06 -0.59,18.3z"/>
   <path class="fil0" d="M321.34 3582.97l29.09 4.06c-3.22,20.01 -11.33,35.63 -24.47,46.96 -13.14,11.34 -29.32,16.97 -48.43,16.97 -23.96,0 -43.24,-7.83 -57.79,-23.51 -14.6,-15.67 -21.87,-38.11 -21.87,-67.31 0,-18.94 3.16,-35.46 9.42,-49.67 6.25,-14.15 15.78,-24.81 28.63,-31.85 12.8,-7.11 26.73,-10.66 41.84,-10.66 19,0 34.61,4.79 46.68,14.43 12.12,9.64 19.9,23.34 23.28,41.05l-28.75 4.39c-2.76,-11.78 -7.61,-20.63 -14.66,-26.61 -6.99,-5.91 -15.45,-8.9 -25.37,-8.9 -15,0 -27.17,5.35 -36.59,16.06 -9.36,10.77 -14.04,27.69 -14.04,50.91 0,23.57 4.51,40.65 13.53,51.31 9.08,10.65 20.86,16.01 35.35,16.01 11.73,0 21.48,-3.55 29.26,-10.71 7.84,-7.11 12.8,-18.1 14.89,-32.93zm188.97 -23.51c0,-32.42 9.02,-56.43 27.11,-72.05 15.06,-12.97 33.49,-19.45 55.2,-19.45 24.07,0 43.8,7.89 59.14,23.68 15.27,15.73 22.94,37.55 22.94,65.34 0,22.55 -3.38,40.26 -10.15,53.17 -6.76,12.91 -16.63,22.94 -29.59,30.1 -12.91,7.16 -27.06,10.71 -42.34,10.71 -24.58,0 -44.43,-7.83 -59.59,-23.56 -15.17,-15.73 -22.72,-38.4 -22.72,-67.94zm30.44 0.06c0,22.44 4.9,39.24 14.71,50.34 9.87,11.17 22.22,16.75 37.16,16.75 14.77,0 27.06,-5.58 36.92,-16.8 9.81,-11.22 14.72,-28.3 14.72,-51.25 0,-21.65 -4.96,-38.05 -14.83,-49.16 -9.87,-11.16 -22.16,-16.75 -36.81,-16.75 -14.94,0 -27.29,5.53 -37.16,16.64 -9.81,11.1 -14.71,27.85 -14.71,50.23zm314.18 87.72l0 -175.56 26.73 0 0 26.89c6.82,-12.46 13.13,-20.69 18.94,-24.63 5.81,-4.01 12.18,-5.98 19.11,-5.98 10.04,0 20.24,3.16 30.61,9.42l-10.6 27.45c-7.21,-4.06 -14.43,-6.09 -21.64,-6.09 -6.49,0 -12.29,1.98 -17.42,5.87 -5.13,3.89 -8.8,9.3 -11,16.23 -3.32,10.55 -4.96,22.1 -4.96,34.68l0 91.72 -29.77 0zm258.66 67.32l0 -242.88 27.06 0 0 23.06c6.37,-8.91 13.58,-15.62 21.65,-20.07 8,-4.45 17.75,-6.71 29.2,-6.71 15,0 28.19,3.84 39.63,11.56 11.45,7.67 20.07,18.55 25.94,32.53 5.8,14.04 8.74,29.37 8.74,46.12 0,17.87 -3.22,33.99 -9.64,48.37 -6.43,14.32 -15.79,25.31 -28.08,32.98 -12.23,7.61 -25.15,11.44 -38.68,11.44 -9.92,0 -18.83,-2.08 -26.66,-6.25 -7.9,-4.18 -14.32,-9.42 -19.4,-15.79l0 85.64 -29.76 0zm27.06 -154.03c0,22.5 4.56,39.13 13.64,49.9 9.13,10.77 20.18,16.18 33.15,16.18 13.19,0 24.47,-5.58 33.83,-16.75 9.41,-11.16 14.09,-28.41 14.09,-51.81 0,-22.32 -4.57,-39.01 -13.76,-50.12 -9.18,-11.1 -20.12,-16.63 -32.86,-16.63 -12.63,0 -23.79,5.92 -33.49,17.7 -9.75,11.84 -14.6,28.98 -14.6,51.53zm295.58 -1.07c0,-32.42 9.02,-56.43 27.11,-72.05 15.06,-12.97 33.49,-19.45 55.2,-19.45 24.07,0 43.8,7.89 59.14,23.68 15.28,15.73 22.94,37.55 22.94,65.34 0,22.55 -3.38,40.26 -10.14,53.17 -6.77,12.91 -16.64,22.94 -29.6,30.1 -12.91,7.16 -27.06,10.71 -42.34,10.71 -24.58,0 -44.43,-7.83 -59.59,-23.56 -15.17,-15.73 -22.72,-38.4 -22.72,-67.94zm30.44 0.06c0,22.44 4.9,39.24 14.71,50.34 9.87,11.17 22.22,16.75 37.16,16.75 14.77,0 27.06,-5.58 36.92,-16.8 9.81,-11.22 14.72,-28.3 14.72,-51.25 0,-21.65 -4.96,-38.05 -14.83,-49.16 -9.86,-11.16 -22.15,-16.75 -36.81,-16.75 -14.94,0 -27.29,5.53 -37.16,16.64 -9.81,11.1 -14.71,27.85 -14.71,50.23zm314.18 87.72l0 -175.56 26.73 0 0 26.89c6.82,-12.46 13.13,-20.69 18.94,-24.63 5.81,-4.01 12.18,-5.98 19.11,-5.98 10.04,0 20.24,3.16 30.61,9.42l-10.59 27.45c-7.22,-4.06 -14.44,-6.09 -21.65,-6.09 -6.49,0 -12.29,1.98 -17.42,5.87 -5.13,3.89 -8.8,9.3 -11,16.23 -3.32,10.55 -4.96,22.1 -4.96,34.68l0 91.72 -29.77 0zm373.33 -21.98c-11.05,9.41 -21.71,16.01 -31.91,19.9 -10.21,3.89 -21.14,5.8 -32.87,5.8 -19.28,0 -34.11,-4.68 -44.48,-14.09 -10.38,-9.36 -15.56,-21.37 -15.56,-35.97 0,-8.57 1.97,-16.41 5.86,-23.51 3.95,-7.1 9.08,-12.74 15.39,-17.03 6.37,-4.28 13.48,-7.55 21.43,-9.75 5.86,-1.52 14.71,-2.99 26.49,-4.45 24.02,-2.82 41.78,-6.26 53.11,-10.21 0.11,-4.06 0.17,-6.65 0.17,-7.72 0,-12.07 -2.82,-20.58 -8.46,-25.54 -7.61,-6.71 -18.94,-10.04 -33.94,-10.04 -14.03,0 -24.41,2.48 -31.06,7.39 -6.71,4.91 -11.61,13.59 -14.83,26.1l-29.09 -4.06c2.65,-12.46 6.99,-22.55 13.08,-30.21 6.09,-7.67 14.89,-13.54 26.39,-17.71 11.44,-4.11 24.8,-6.2 39.91,-6.2 15,0 27.23,1.75 36.65,5.3 9.36,3.55 16.29,7.95 20.69,13.31 4.4,5.35 7.5,12.12 9.3,20.29 0.96,5.08 1.47,14.21 1.47,27.34l0 39.47c0,27.57 0.62,44.99 1.86,52.37 1.18,7.39 3.66,14.44 7.27,21.2l-31.12 0c-2.99,-6.25 -4.91,-13.58 -5.75,-21.98zm-2.37 -65.97c-10.82,4.4 -27.06,8.12 -48.71,11.17 -12.29,1.74 -20.97,3.72 -26.05,5.92 -5.07,2.19 -8.96,5.41 -11.72,9.58 -2.77,4.23 -4.17,8.91 -4.17,14.09 0,7.84 2.98,14.44 9.02,19.68 6.03,5.24 14.82,7.89 26.38,7.89 11.44,0 21.65,-2.48 30.61,-7.5 8.91,-4.96 15.51,-11.78 19.68,-20.4 3.21,-6.71 4.79,-16.58 4.79,-29.6l0.17 -10.83zm286.11 61.4l4.06 26.27c-8.35,1.75 -15.84,2.65 -22.38,2.65 -10.77,0 -19.12,-1.69 -25.09,-5.13 -5.92,-3.44 -10.09,-7.89 -12.52,-13.47 -2.42,-5.59 -3.61,-17.31 -3.61,-35.18l0 -101.15 -21.98 0 0 -23 21.98 0 0 -43.41 29.77 -17.87 0 61.28 29.77 0 0 23 -29.77 0 0 102.84c0,8.51 0.51,13.98 1.58,16.4 1.01,2.43 2.71,4.34 5.07,5.81 2.37,1.41 5.75,2.14 10.15,2.14 3.27,0 7.61,-0.39 12.97,-1.18zm175.04 -181.82l0 -33.83 29.77 0 0 33.83 -29.77 0zm0 208.37l0 -175.56 29.77 0 0 175.56 -29.77 0zm209.66 -87.78c0,-32.42 9.02,-56.43 27.12,-72.05 15.05,-12.97 33.49,-19.45 55.19,-19.45 24.08,0 43.81,7.89 59.14,23.68 15.28,15.73 22.95,37.55 22.95,65.34 0,22.55 -3.38,40.26 -10.15,53.17 -6.77,12.91 -16.63,22.94 -29.6,30.1 -12.91,7.16 -27.06,10.71 -42.34,10.71 -24.58,0 -44.42,-7.83 -59.59,-23.56 -15.16,-15.73 -22.72,-38.4 -22.72,-67.94zm30.44 0.06c0,22.44 4.91,39.24 14.72,50.34 9.87,11.17 22.21,16.75 37.15,16.75 14.77,0 27.06,-5.58 36.93,-16.8 9.81,-11.22 14.71,-28.3 14.71,-51.25 0,-21.65 -4.96,-38.05 -14.82,-49.16 -9.87,-11.16 -22.16,-16.75 -36.82,-16.75 -14.94,0 -27.28,5.53 -37.15,16.64 -9.81,11.1 -14.72,27.85 -14.72,50.23zm314.53 87.72l0 -175.56 26.72 0 0 24.92c12.85,-19.11 31.46,-28.64 55.76,-28.64 10.6,0 20.29,1.92 29.14,5.7 8.86,3.77 15.51,8.79 19.91,14.94 4.39,6.14 7.49,13.47 9.24,21.93 1.07,5.52 1.64,15.16 1.64,28.92l0 107.79 -29.77 0 0 -106.66c0,-12.12 -1.13,-21.2 -3.44,-27.18 -2.31,-5.97 -6.43,-10.77 -12.29,-14.37 -5.86,-3.56 -12.8,-5.36 -20.69,-5.36 -12.63,0 -23.51,4 -32.7,12.06 -9.19,8.01 -13.76,23.29 -13.76,45.73l0 95.78 -29.76 0z"/>
  </g>
 </g>
</svg>
